<svg width="902" height="225" viewBox="0 0 902 225" fill="none" xmlns="http://www.w3.org/2000/svg">
<rect width="902" height="211" fill="#FAFAFA"/>
<line x1="140.929" y1="81.4293" x2="80.3099" y2="69.8398" stroke="#10112B" stroke-width="18"/>
<rect x="72" y="105" width="19" height="39" fill="#10112B"/>
<circle cx="81.7593" cy="69.7593" r="37.5" transform="rotate(-39.1766 81.7593 69.7593)" fill="#FAFAFA"/>
<path d="M191.208 97.76H221.16V114.08H191.208V97.76ZM192.744 122.912H226.344V140H170.472V72.8H225.096V89.888H192.744V122.912ZM249.274 140L228.154 87.488H250.426L266.458 130.112H255.226L272.314 87.488H292.858L271.738 140H249.274ZM323.761 140.96C317.361 140.96 311.761 139.776 306.961 137.408C302.225 135.04 298.545 131.808 295.921 127.712C293.297 123.552 291.985 118.88 291.985 113.696C291.985 108.384 293.265 103.68 295.825 99.584C298.449 95.488 302.001 92.288 306.481 89.984C311.025 87.68 316.113 86.528 321.745 86.528C326.929 86.528 331.697 87.552 336.049 89.6C340.465 91.648 343.985 94.688 346.609 98.72C349.297 102.752 350.641 107.744 350.641 113.696C350.641 114.464 350.609 115.328 350.545 116.288C350.481 117.184 350.417 118.016 350.353 118.784H309.937V108.32H338.833L330.673 111.104C330.673 109.056 330.289 107.328 329.521 105.92C328.817 104.448 327.825 103.328 326.545 102.56C325.265 101.728 323.729 101.312 321.937 101.312C320.145 101.312 318.577 101.728 317.233 102.56C315.953 103.328 314.961 104.448 314.257 105.92C313.553 107.328 313.201 109.056 313.201 111.104V114.368C313.201 116.608 313.649 118.528 314.545 120.128C315.441 121.728 316.721 122.944 318.385 123.776C320.049 124.544 322.065 124.928 324.433 124.928C326.865 124.928 328.849 124.608 330.385 123.968C331.985 123.328 333.649 122.368 335.377 121.088L346.705 132.512C344.145 135.264 340.977 137.376 337.201 138.848C333.489 140.256 329.009 140.96 323.761 140.96ZM393.968 86.528C398 86.528 401.648 87.36 404.912 89.024C408.176 90.624 410.736 93.152 412.592 96.608C414.512 100.064 415.472 104.544 415.472 110.048V140H393.776V113.792C393.776 110.528 393.2 108.224 392.048 106.88C390.896 105.472 389.328 104.768 387.344 104.768C385.872 104.768 384.496 105.12 383.216 105.824C382 106.464 381.008 107.552 380.24 109.088C379.536 110.624 379.184 112.704 379.184 115.328V140H357.488V87.488H378.128V102.848L374 98.432C376.048 94.464 378.8 91.488 382.256 89.504C385.776 87.52 389.68 86.528 393.968 86.528ZM450.238 140.96C443.006 140.96 437.374 139.232 433.342 135.776C429.31 132.256 427.294 126.88 427.294 119.648V75.68H448.99V119.456C448.99 121.056 449.406 122.304 450.238 123.2C451.134 124.096 452.222 124.544 453.502 124.544C455.358 124.544 456.99 124.064 458.398 123.104L463.582 138.176C461.918 139.136 459.902 139.84 457.534 140.288C455.23 140.736 452.798 140.96 450.238 140.96ZM420.094 106.208V90.368H459.742V106.208H420.094ZM490.842 101.408H520.41V118.496H490.842V101.408ZM492.378 140H469.722V72.8H524.346V89.888H492.378V140ZM530.831 140V87.488H552.527V140H530.831ZM541.679 83.264C537.711 83.264 534.543 82.208 532.175 80.096C529.807 77.984 528.623 75.36 528.623 72.224C528.623 69.088 529.807 66.464 532.175 64.352C534.543 62.24 537.711 61.184 541.679 61.184C545.647 61.184 548.815 62.176 551.183 64.16C553.551 66.144 554.735 68.704 554.735 71.84C554.735 75.168 553.551 77.92 551.183 80.096C548.815 82.208 545.647 83.264 541.679 83.264ZM598.624 86.528C602.656 86.528 606.304 87.36 609.568 89.024C612.832 90.624 615.392 93.152 617.248 96.608C619.168 100.064 620.128 104.544 620.128 110.048V140H598.432V113.792C598.432 110.528 597.856 108.224 596.704 106.88C595.552 105.472 593.984 104.768 592 104.768C590.528 104.768 589.152 105.12 587.872 105.824C586.656 106.464 585.664 107.552 584.896 109.088C584.192 110.624 583.84 112.704 583.84 115.328V140H562.144V87.488H582.784V102.848L578.656 98.432C580.704 94.464 583.456 91.488 586.912 89.504C590.432 87.52 594.336 86.528 598.624 86.528ZM653.528 140.96C648.984 140.96 644.76 139.872 640.856 137.696C637.016 135.456 633.944 132.32 631.64 128.288C629.336 124.192 628.184 119.328 628.184 113.696C628.184 108.064 629.336 103.232 631.64 99.2C633.944 95.104 637.016 91.968 640.856 89.792C644.76 87.616 648.984 86.528 653.528 86.528C658.136 86.528 661.912 87.52 664.856 89.504C667.8 91.424 669.976 94.4 671.384 98.432C672.792 102.4 673.496 107.488 673.496 113.696C673.496 119.968 672.824 125.12 671.48 129.152C670.2 133.184 668.088 136.16 665.144 138.08C662.264 140 658.392 140.96 653.528 140.96ZM658.712 124.064C660.312 124.064 661.752 123.68 663.032 122.912C664.312 122.144 665.336 120.992 666.104 119.456C666.872 117.856 667.256 115.936 667.256 113.696C667.256 111.392 666.872 109.504 666.104 108.032C665.336 106.496 664.312 105.344 663.032 104.576C661.752 103.808 660.312 103.424 658.712 103.424C657.112 103.424 655.672 103.808 654.392 104.576C653.112 105.344 652.088 106.496 651.32 108.032C650.552 109.504 650.168 111.392 650.168 113.696C650.168 115.936 650.552 117.856 651.32 119.456C652.088 120.992 653.112 122.144 654.392 122.912C655.672 123.68 657.112 124.064 658.712 124.064ZM667.928 140V132.896L667.832 113.696L666.872 94.496V68.768H688.568V140H667.928ZM727.167 140.96C720.767 140.96 715.167 139.776 710.367 137.408C705.631 135.04 701.951 131.808 699.327 127.712C696.703 123.552 695.391 118.88 695.391 113.696C695.391 108.384 696.671 103.68 699.231 99.584C701.855 95.488 705.407 92.288 709.887 89.984C714.431 87.68 719.519 86.528 725.151 86.528C730.335 86.528 735.103 87.552 739.455 89.6C743.871 91.648 747.391 94.688 750.015 98.72C752.703 102.752 754.047 107.744 754.047 113.696C754.047 114.464 754.015 115.328 753.951 116.288C753.887 117.184 753.823 118.016 753.759 118.784H713.343V108.32H742.239L734.079 111.104C734.079 109.056 733.695 107.328 732.927 105.92C732.223 104.448 731.231 103.328 729.951 102.56C728.671 101.728 727.135 101.312 725.343 101.312C723.551 101.312 721.983 101.728 720.639 102.56C719.359 103.328 718.367 104.448 717.663 105.92C716.959 107.328 716.607 109.056 716.607 111.104V114.368C716.607 116.608 717.055 118.528 717.951 120.128C718.847 121.728 720.127 122.944 721.791 123.776C723.455 124.544 725.471 124.928 727.839 124.928C730.271 124.928 732.255 124.608 733.791 123.968C735.391 123.328 737.055 122.368 738.783 121.088L750.111 132.512C747.551 135.264 744.383 137.376 740.607 138.848C736.895 140.256 732.415 140.96 727.167 140.96ZM760.894 140V87.488H781.534V103.328L778.174 98.816C779.774 94.72 782.334 91.648 785.854 89.6C789.374 87.552 793.598 86.528 798.526 86.528V105.728C797.566 105.6 796.702 105.504 795.934 105.44C795.23 105.376 794.494 105.344 793.726 105.344C790.462 105.344 787.774 106.208 785.662 107.936C783.614 109.6 782.59 112.512 782.59 116.672V140H760.894ZM825.219 140.96C820.739 140.96 816.323 140.48 811.971 139.52C807.619 138.56 804.099 137.312 801.411 135.776L807.363 121.472C809.859 122.944 812.739 124.096 816.003 124.928C819.331 125.76 822.563 126.176 825.699 126.176C828.323 126.176 830.083 125.952 830.979 125.504C831.939 125.056 832.419 124.448 832.419 123.68C832.419 122.912 831.875 122.368 830.787 122.048C829.699 121.664 828.259 121.376 826.467 121.184C824.675 120.992 822.691 120.768 820.515 120.512C818.403 120.192 816.259 119.744 814.083 119.168C811.907 118.592 809.923 117.728 808.131 116.576C806.339 115.424 804.899 113.888 803.811 111.968C802.723 109.984 802.179 107.488 802.179 104.48C802.179 101.152 803.171 98.144 805.155 95.456C807.203 92.768 810.211 90.624 814.179 89.024C818.211 87.36 823.171 86.528 829.059 86.528C832.899 86.528 836.739 86.88 840.579 87.584C844.419 88.288 847.715 89.376 850.467 90.848L844.515 105.152C841.827 103.68 839.171 102.688 836.547 102.176C833.987 101.6 831.587 101.312 829.347 101.312C826.595 101.312 824.707 101.568 823.683 102.08C822.723 102.592 822.243 103.168 822.243 103.808C822.243 104.576 822.787 105.152 823.875 105.536C824.963 105.92 826.403 106.208 828.195 106.4C829.987 106.592 831.939 106.848 834.051 107.168C836.227 107.424 838.371 107.872 840.483 108.512C842.659 109.088 844.643 109.952 846.435 111.104C848.227 112.256 849.667 113.824 850.755 115.808C851.843 117.728 852.387 120.192 852.387 123.2C852.387 126.336 851.395 129.28 849.411 132.032C847.427 134.72 844.419 136.896 840.387 138.56C836.355 140.16 831.299 140.96 825.219 140.96Z" fill="#10112B"/>
<circle cx="81.7247" cy="69.7247" r="32.5" transform="rotate(-39.1766 81.7247 69.7247)" fill="#10112B"/>
<circle cx="81.7248" cy="69.7247" r="17.5" transform="rotate(-39.1766 81.7248 69.7247)" fill="#FAFAFA"/>
<path d="M81.5262 159.5L71.9999 143H91.0525L81.5262 159.5Z" fill="#10112B"/>
<path d="M71 142L69.2679 144.25H72.7321L71 142Z" fill="#FAFAFA"/>
<path d="M92 142L90.2679 144.25H93.7321L92 142Z" fill="#FAFAFA"/>
</svg>
