<svg width="53" height="53" viewBox="0 0 53 53" fill="none" xmlns="http://www.w3.org/2000/svg">
<path fill-rule="evenodd" clip-rule="evenodd" d="M26.5 52.5C40.8594 52.5 52.5 40.8594 52.5 26.5C52.5 12.1406 40.8594 0.5 26.5 0.5C12.1406 0.5 0.5 12.1406 0.5 26.5C0.5 40.8594 12.1406 52.5 26.5 52.5ZM18.3864 32.9545V36.5H34.9773V32.4773H25.2045V32.3182L28.6023 28.9886C30.2008 27.5341 31.4394 26.2879 32.3182 25.25C33.197 24.2045 33.8068 23.2538 34.1477 22.3977C34.4962 21.5417 34.6705 20.6742 34.6705 19.7955C34.6705 18.4545 34.3258 17.2652 33.6364 16.2273C32.947 15.1894 31.9811 14.3788 30.7386 13.7955C29.5038 13.2045 28.053 12.9091 26.3864 12.9091C24.7652 12.9091 23.3333 13.2159 22.0909 13.8295C20.8485 14.4432 19.8826 15.3106 19.1932 16.4318C18.5038 17.553 18.1591 18.875 18.1591 20.3977H22.8295C22.8295 19.6553 22.9735 19.0152 23.2614 18.4773C23.5492 17.9394 23.9583 17.5265 24.4886 17.2386C25.0189 16.9508 25.6402 16.8068 26.3523 16.8068C27.0341 16.8068 27.6439 16.9432 28.1818 17.2159C28.7197 17.4811 29.1439 17.8636 29.4545 18.3636C29.7652 18.8561 29.9205 19.4432 29.9205 20.125C29.9205 20.7386 29.7955 21.3106 29.5455 21.8409C29.2955 22.3636 28.928 22.8977 28.4432 23.4432C27.9659 23.9886 27.375 24.6023 26.6705 25.2841L18.3864 32.9545Z" fill="#5A33FF"/>
</svg>
