<svg width="53" height="53" viewBox="0 0 53 53" fill="none" xmlns="http://www.w3.org/2000/svg">
<path fill-rule="evenodd" clip-rule="evenodd" d="M26.5 52.5C40.8594 52.5 52.5 40.8594 52.5 26.5C52.5 12.1406 40.8594 0.5 26.5 0.5C12.1406 0.5 0.5 12.1406 0.5 26.5C0.5 40.8594 12.1406 52.5 26.5 52.5ZM21.4545 35.9432C22.7803 36.5265 24.2917 36.8182 25.9886 36.8182C27.7311 36.8182 29.2765 36.5227 30.625 35.9318C31.9735 35.3409 33.0303 34.5303 33.7955 33.5C34.5682 32.4697 34.9508 31.2917 34.9432 29.9659C34.9508 28.5189 34.5038 27.3144 33.6023 26.3523C32.7083 25.3826 31.4053 24.7879 29.6932 24.5682V24.3864C30.9962 24.1515 32.053 23.5985 32.8636 22.7273C33.6818 21.8561 34.0871 20.7689 34.0795 19.4659C34.0871 18.2386 33.7538 17.1326 33.0795 16.1477C32.4129 15.1553 31.4773 14.3674 30.2727 13.7841C29.0682 13.2008 27.6629 12.9091 26.0568 12.9091C24.4659 12.9091 23.0379 13.2008 21.7727 13.7841C20.5152 14.3598 19.5152 15.1591 18.7727 16.1818C18.0303 17.2045 17.6477 18.3864 17.625 19.7273H22.3409C22.3636 19.1364 22.5417 18.6212 22.875 18.1818C23.2083 17.7424 23.6515 17.4053 24.2045 17.1705C24.7576 16.928 25.3674 16.8068 26.0341 16.8068C26.6932 16.8068 27.2689 16.9318 27.7614 17.1818C28.2614 17.4318 28.6477 17.7803 28.9205 18.2273C29.2008 18.6667 29.3409 19.178 29.3409 19.7614C29.3409 20.375 29.1818 20.9129 28.8636 21.375C28.5455 21.8295 28.0985 22.1856 27.5227 22.4432C26.9545 22.7008 26.2992 22.8295 25.5568 22.8295H23.3864V26.4432H25.5568C26.4356 26.4432 27.1932 26.5795 27.8295 26.8523C28.4735 27.125 28.9659 27.5038 29.3068 27.9886C29.6553 28.4659 29.8295 29.0152 29.8295 29.6364C29.8295 30.25 29.6667 30.7917 29.3409 31.2614C29.0152 31.7311 28.5644 32.0985 27.9886 32.3636C27.4129 32.6288 26.75 32.7614 26 32.7614C25.2803 32.7614 24.6326 32.6439 24.0568 32.4091C23.4811 32.1742 23.0189 31.8447 22.6705 31.4205C22.3295 30.9886 22.1439 30.4886 22.1136 29.9205H17.1591C17.1818 31.2765 17.572 32.4735 18.3295 33.5114C19.0947 34.5417 20.1364 35.3523 21.4545 35.9432Z" fill="#5A33FF"/>
</svg>
